<svg width="210" height="67" viewBox="0 0 210 67" fill="none" xmlns="http://www.w3.org/2000/svg">
<g clip-path="url(#clip0_194_25)">
<path d="M0.0418701 26.6807V17.4333C4.31896 17.8841 8.56819 18.1603 12.7617 18.8146C21.7338 20.1959 29.6889 24.2962 37.24 29.3416C44.2756 34.038 51.6038 38.0364 59.9908 39.3305C63.8778 39.9266 67.8205 40.2174 71.9025 40.6536V49.5666C64.9366 49.5666 58.1518 48.6942 51.5481 46.4987C45.5016 44.4922 40.0125 41.3225 34.6905 37.7893C27.1812 32.7875 19.3097 28.7163 10.3236 27.6258C6.95209 27.2187 3.55271 27.0152 0.0418701 26.7098V26.6807Z" fill="#3B31DE"/>
<path d="M-0.000228269 44.3323V35.4193C4.58336 35.0703 9.0555 35.7101 13.4719 36.8006C19.7552 38.3564 25.2304 41.7296 30.6081 45.2919C39.5803 51.2387 49.1236 55.6007 59.7536 56.9529C63.7242 57.4618 67.7366 57.6654 71.8883 58.0289V67.0146C69.1298 66.8837 66.3573 66.811 63.5849 66.6074C49.8899 65.5751 37.6019 60.4134 26.2614 52.5764C18.571 47.2693 10.2815 44.2014 0.988936 44.4631C0.738162 44.4631 0.473456 44.405 -0.0141602 44.3323H-0.000228269Z" fill="#3B31DE"/>
<path d="M72.0001 22.8858V32.1042C68.545 31.7116 65.1734 31.4935 61.8437 30.9119C54.6827 29.6905 48.483 26.0119 42.548 21.9117C30.0511 13.2895 16.2725 9.3201 1.36538 9.3201C1.10068 9.3201 0.82204 9.3201 0.557334 9.27647C0.431947 9.27647 0.320492 9.18924 0.0557861 9.08746V0C3.56662 0.218099 7.09139 0.334418 10.5883 0.683377C23.531 1.96289 35.2477 6.77561 46.1007 14.1037C51.6874 17.8841 57.483 21.2428 64.24 22.1443C66.7477 22.4787 69.2833 22.6387 72.0001 22.8858Z" fill="#3B31DE"/>
<path d="M39.0372 0.101692C44.0387 0.101692 49.0403 0.0871517 54.0279 0.130771C54.5294 0.130771 55.0867 0.36341 55.5047 0.654209C60.2276 3.92569 65.4242 5.39423 71.0805 5.14705C71.3313 5.14705 71.5821 5.21975 71.9443 5.27791V14.2927C66.5109 14.4235 61.2446 13.7838 56.466 11.0212C50.5728 7.61884 44.7911 3.98385 38.9675 0.45065C38.9954 0.334331 39.0093 0.218011 39.0372 0.101692Z" fill="#3B31DE"/>
<path d="M0.0279541 52.9398C6.24158 52.5763 11.9676 53.7977 17.2478 57.0256C22.4444 60.1953 27.5992 63.4086 32.8236 66.6365C32.7261 66.7092 32.6007 66.9272 32.4614 66.9272C27.641 66.9563 22.8205 66.9854 18.0001 66.9563C17.4985 66.9563 16.9134 66.7964 16.4954 66.5056C11.7168 63.1469 6.42269 61.7947 0.710617 61.9401C0.51557 61.9401 0.334456 61.8383 0.0279541 61.751V52.9398Z" fill="#3B31DE"/>
</g>
<path d="M98.9187 19.8806H86.5541V0H98.892V2.56869H89.2513V8.50877H98.1976V11.0775H89.2513V17.3386H98.9187V19.9073V19.8806Z" fill="#3B31DE"/>
<path d="M118.894 14.1813V0H121.565V19.8806H120.176L108.292 5.77954V19.8806H105.622V0H106.824L118.894 14.1813Z" fill="#3B31DE"/>
<path d="M132.968 19.8806V2.6222H127.093V0H141.54V2.6222H135.665V19.8806H132.968Z" fill="#3B31DE"/>
<path d="M160.394 14.1813V0H163.065V19.8806H161.676L149.792 5.77954V19.8806H147.122V0H148.324L160.394 14.1813Z" fill="#3B31DE"/>
<path d="M174.468 19.8806V2.6222H168.593V0H183.041V2.6222H177.165V19.8806H174.468Z" fill="#3B31DE"/>
<g clip-path="url(#clip1_194_25)">
<path d="M94.4638 45.2705H93.2306L90.0791 40.0312H87.5854V45.2705H86.5714V32.8616H90.2984C91.559 32.8616 92.5181 33.2201 93.1758 33.937C93.8609 34.6264 94.1898 35.4812 94.1898 36.4464C94.1898 37.2736 93.9157 38.0182 93.3951 38.68C92.8744 39.3142 92.1345 39.7279 91.1479 39.9209L94.4638 45.2705ZM90.2984 33.8267H87.5854V39.0385H90.0517C91.0383 39.0385 91.7782 38.7903 92.3263 38.3215C92.8744 37.8527 93.121 37.1909 93.121 36.4188C93.121 35.6467 92.8744 35.0125 92.3537 34.5437C91.833 34.0749 91.1479 33.8267 90.271 33.8267H90.2984Z" fill="#3B31DE"/>
<path d="M104.357 45.2705H96.9028V32.8616H104.329V33.8267H97.9168V38.487H103.891V39.4521H97.9168V44.2778H104.357V45.2429V45.2705Z" fill="#3B31DE"/>
<path d="M107.947 45.2705H106.933V32.8616H107.371L112.797 40.886L118.196 32.8616H118.662V45.2705H117.648V35.3985L112.934 42.4302H112.688L107.974 35.4261V45.2981L107.947 45.2705Z" fill="#3B31DE"/>
<path d="M127.486 45.4634C125.732 45.4634 124.225 44.8292 123.019 43.5883C121.786 42.3474 121.183 40.8308 121.183 39.0659C121.183 37.3011 121.813 35.7845 123.046 34.516C124.28 33.2475 125.787 32.6133 127.541 32.6133C129.295 32.6133 130.774 33.2475 132.008 34.4884C133.268 35.7293 133.871 37.246 133.871 39.0108C133.871 40.7756 133.241 42.2923 132.008 43.5331C130.774 44.774 129.267 45.4083 127.513 45.4083L127.486 45.4634ZM127.513 44.4707C128.993 44.4707 130.254 43.9468 131.268 42.8989C132.282 41.8235 132.802 40.555 132.802 39.0384C132.802 37.5217 132.282 36.2257 131.268 35.1778C130.254 34.1299 128.993 33.606 127.513 33.606C126.034 33.606 124.773 34.1299 123.732 35.2054C122.718 36.2808 122.197 37.5493 122.197 39.0384C122.197 40.5274 122.718 41.8235 123.732 42.8989C124.746 43.9468 126.006 44.4707 127.513 44.4707Z" fill="#3B31DE"/>
<path d="M137.954 45.2705V33.8543H134.227V32.8616H142.723V33.8543H138.996V45.2705H137.982H137.954Z" fill="#3B31DE"/>
<path d="M152.122 45.2705H144.668V32.8616H152.095V33.8267H145.682V38.487H151.656V39.4521H145.682V44.2778H152.122V45.2429V45.2705Z" fill="#3B31DE"/>
<path d="M160.535 45.2705V33.8543H156.808V32.8616H165.304V33.8543H161.577V45.2705H160.563H160.535Z" fill="#3B31DE"/>
<path d="M174.676 45.2705H167.222V32.8616H174.649V33.8267H168.236V38.487H174.21V39.4521H168.236V44.2778H174.676V45.2429V45.2705Z" fill="#3B31DE"/>
<path d="M186.186 45.2705H185.062L183.582 41.5203H178.403L176.923 45.2705H175.8L180.732 32.8616H181.28L186.186 45.2705ZM183.253 40.5551L181.006 34.6816L178.732 40.5551H183.253Z" fill="#3B31DE"/>
<path d="M189.145 45.2705H188.131V32.8616H188.57L193.996 40.886L199.367 32.8616H199.833V45.2705H198.819V35.3985L194.106 42.4302H193.859L189.145 35.4261V45.2981V45.2705Z" fill="#3B31DE"/>
<path d="M206.136 45.4635C205.232 45.4635 204.437 45.2429 203.724 44.8017C203.012 44.3604 202.464 43.7262 202.08 42.8989L202.902 42.3474C203.204 43.0368 203.642 43.5608 204.19 43.9468C204.738 44.3329 205.369 44.5259 206.109 44.5259C206.931 44.5259 207.616 44.3053 208.137 43.8365C208.657 43.3677 208.931 42.8162 208.931 42.1268C208.931 41.6581 208.794 41.2444 208.52 40.9135C208.246 40.5826 207.835 40.2793 207.314 40.0035C206.958 39.8381 206.547 39.6175 206.054 39.4244C205.424 39.1487 205.012 38.9557 204.821 38.8454C203.423 38.1284 202.71 37.1633 202.71 35.8948C202.71 34.9572 203.039 34.1851 203.67 33.606C204.327 32.9994 205.177 32.696 206.246 32.696C207.725 32.696 208.876 33.3027 209.726 34.5436L208.959 35.1778C208.246 34.1575 207.369 33.6612 206.246 33.6612C205.506 33.6612 204.903 33.8542 204.464 34.2678C203.998 34.6815 203.779 35.2054 203.779 35.8672C203.779 36.7221 204.273 37.4114 205.259 37.9354C205.533 38.0733 205.999 38.2939 206.602 38.5696C207.287 38.8729 207.753 39.0935 208 39.2314C209.315 39.9484 209.973 40.9135 209.973 42.1268C209.973 43.1471 209.589 43.9468 208.849 44.6086C208.109 45.2429 207.177 45.5462 206.109 45.5462L206.136 45.4635Z" fill="#3B31DE"/>
<path d="M87.5854 66.8068H86.5714V54.3978H87.0373L92.4633 62.4223L97.8345 54.3978H98.3004V66.8068H97.2865V56.9348L92.5729 63.9665H92.3263L87.6128 56.9623V66.8343L87.5854 66.8068Z" fill="#3B31DE"/>
<path d="M110.577 66.8068H109.454L107.974 63.0565H102.795L101.315 66.8068H100.191L105.124 54.3978H105.672L110.577 66.8068ZM107.673 62.0914L105.425 56.2178L103.151 62.0914H107.673Z" fill="#3B31DE"/>
<path d="M116.661 66.8068H112.551V54.3978H116.798C118.552 54.3978 119.922 54.9493 120.936 56.0799C121.95 57.2105 122.471 58.7272 122.471 60.6299C122.471 62.5326 121.95 64.0492 120.909 65.1522C119.868 66.2553 118.443 66.8068 116.661 66.8068ZM113.565 55.363V65.8141H116.661C118.141 65.8141 119.32 65.3453 120.142 64.4077C120.991 63.4426 121.402 62.1741 121.402 60.6023C121.402 59.0305 120.991 57.762 120.142 56.7969C119.32 55.8317 118.196 55.363 116.744 55.363H113.565Z" fill="#3B31DE"/>
<path d="M132.501 66.8068H125.047V54.3978H132.473V55.363H126.061V60.0232H132.035V60.9884H126.061V65.8141H132.501V66.7792V66.8068Z" fill="#3B31DE"/>
<path d="M146.669 66.8068H139.215V54.3978H146.641V55.363H140.229V60.0232H146.203V60.9884H140.229V65.8141H146.669V66.7792V66.8068Z" fill="#3B31DE"/>
<path d="M158.151 66.8068H157.028L155.548 63.0565H150.368L148.889 66.8068H147.765L152.698 54.3978H153.246L158.151 66.8068ZM155.246 62.0914L152.999 56.2178L150.725 62.0914H155.246Z" fill="#3B31DE"/>
<path d="M162.783 66.9998C161.878 66.9998 161.083 66.7792 160.371 66.338C159.658 65.8968 159.11 65.2626 158.727 64.4353L159.549 63.8838C159.85 64.5732 160.289 65.0971 160.837 65.4832C161.385 65.8692 162.015 66.0623 162.755 66.0623C163.577 66.0623 164.262 65.8417 164.783 65.3729C165.304 64.9041 165.578 64.3526 165.578 63.6632C165.578 63.1944 165.441 62.7808 165.167 62.4499C164.893 62.119 164.482 61.8157 163.961 61.5399C163.605 61.3745 163.194 61.1539 162.7 60.9608C162.07 60.6851 161.659 60.492 161.467 60.3817C160.069 59.6648 159.357 58.6996 159.357 57.4312C159.357 56.4936 159.686 55.7215 160.316 55.1424C160.974 54.5358 161.823 54.2324 162.892 54.2324C164.372 54.2324 165.523 54.8391 166.372 56.08L165.605 56.7142C164.893 55.6939 164.016 55.1976 162.892 55.1976C162.152 55.1976 161.549 55.3906 161.111 55.8042C160.645 56.2179 160.426 56.7418 160.426 57.4036C160.426 58.2584 160.919 58.9478 161.906 59.4718C162.18 59.6096 162.645 59.8302 163.248 60.106C163.933 60.4093 164.399 60.6299 164.646 60.7678C165.961 61.4848 166.619 62.4499 166.619 63.6632C166.619 64.6835 166.235 65.4832 165.496 66.145C164.756 66.7792 163.824 67.0826 162.755 67.0826L162.783 66.9998Z" fill="#3B31DE"/>
<path d="M175.827 54.3978H176.95L172.785 61.8983V66.8068H171.771V61.8983L167.633 54.3978H168.757L172.292 60.9332L175.854 54.3978H175.827Z" fill="#3B31DE"/>
</g>
<defs>
<clipPath id="clip0_194_25">
<rect width="72" height="67" fill="white"/>
</clipPath>
<clipPath id="clip1_194_25">
<rect width="123.429" height="34.359" fill="white" transform="translate(86.5714 32.6409)"/>
</clipPath>
</defs>
</svg>
